<?xml version="1.0" encoding="UTF-8"?>
<svg xmlns="http://www.w3.org/2000/svg" xmlns:xlink="http://www.w3.org/1999/xlink" width="522pt" height="588pt" viewBox="0 0 522 588" version="1.1">
<defs>
<clipPath id="clip1">
  <path d="M 166 144 L 521 144 L 521 587.5 L 166 587.5 Z M 166 144 "/>
</clipPath>
<clipPath id="clip2">
  <path d="M 165 143 L 521.84375 143 L 521.84375 588 L 165 588 Z M 165 143 "/>
</clipPath>
<clipPath id="clip3">
  <path d="M 166 329 L 521.84375 329 L 521.84375 340 L 166 340 Z M 166 329 "/>
</clipPath>
<clipPath id="clip4">
  <path d="M 166 108 L 521.84375 108 L 521.84375 127.5 L 166 127.5 Z M 166 108 "/>
</clipPath>
<clipPath id="clip5">
  <path d="M 166 108 L 521.84375 108 L 521.84375 127.5 L 166 127.5 Z M 166 108 "/>
</clipPath>
<clipPath id="clip6">
  <path d="M 165 143 L 521.84375 143 L 521.84375 588 L 165 588 Z M 165 143 "/>
</clipPath>
</defs>
<g id="surface1">
<g clip-path="url(#clip1)" clip-rule="nonzero">
<path style=" stroke:none;fill-rule:nonzero;fill:rgb(98.039216%,98.039216%,98.039216%);fill-opacity:1;" d="M 166.523438 587.285156 L 520.859375 587.285156 L 520.859375 144.367188 L 166.523438 144.367188 Z M 166.523438 587.285156 "/>
</g>
<g clip-path="url(#clip2)" clip-rule="nonzero">
<path style="fill:none;stroke-width:0.79701;stroke-linecap:butt;stroke-linejoin:miter;stroke:rgb(0%,0%,0%);stroke-opacity:1;stroke-miterlimit:10;" d="M 0.000375 0.0009375 L 141.73475 0.0009375 L 141.73475 177.168125 L 0.000375 177.168125 Z M 0.000375 0.0009375 " transform="matrix(2.5,0,0,-2.5,166.5225,587.2875)"/>
</g>
<path style="fill:none;stroke-width:0.79701;stroke-linecap:butt;stroke-linejoin:miter;stroke:rgb(69.803922%,0%,0%);stroke-opacity:1;stroke-miterlimit:10;" d="M -49.609 174.579063 L -49.609 2.59 " transform="matrix(2.5,0,0,-2.5,166.5225,587.2875)"/>
<path style=" stroke:none;fill-rule:nonzero;fill:rgb(69.803922%,0%,0%);fill-opacity:1;" d="M 42.5 144.367188 L 37.324219 154.726562 L 42.5 150.839844 L 47.6875 154.726562 "/>
<path style=" stroke:none;fill-rule:nonzero;fill:rgb(69.803922%,0%,0%);fill-opacity:1;" d="M 42.5 587.285156 L 47.6875 576.921875 L 42.5 580.8125 L 37.324219 576.921875 "/>
<path style=" stroke:none;fill-rule:nonzero;fill:rgb(69.803922%,0%,0%);fill-opacity:1;" d="M 11.394531 411.132812 C 10.886719 411.132812 10.496094 411.484375 10.496094 412.03125 C 10.496094 412.734375 11.160156 413.398438 11.824219 413.398438 C 12.292969 413.398438 12.722656 413.046875 12.722656 412.460938 C 12.722656 411.875 12.136719 411.132812 11.394531 411.132812 Z M 20.769531 413.007812 C 20.066406 412.734375 19.988281 412.734375 19.324219 412.460938 C 18.816406 412.265625 18.464844 412.148438 17.996094 412.148438 C 16.902344 412.148438 15.964844 412.929688 15.964844 414.179688 C 15.964844 416.523438 19.597656 417.460938 19.792969 417.460938 C 20.066406 417.460938 20.066406 417.226562 20.066406 417.1875 C 20.066406 416.914062 19.988281 416.914062 19.597656 416.796875 C 17.253906 416.09375 16.511719 415.117188 16.511719 414.257812 C 16.511719 414.0625 16.511719 413.632812 17.292969 413.632812 C 17.839844 413.632812 18.347656 413.828125 18.621094 413.90625 C 19.246094 414.101562 22.136719 415.234375 23.230469 415.625 C 23.855469 415.898438 24.675781 416.210938 25.222656 416.210938 C 26.394531 416.210938 27.253906 415.351562 27.253906 414.179688 C 27.253906 411.835938 23.660156 410.898438 23.425781 410.898438 C 23.152344 410.898438 23.152344 411.132812 23.152344 411.210938 C 23.152344 411.445312 23.230469 411.445312 23.621094 411.5625 C 25.183594 412.03125 26.707031 412.851562 26.707031 414.101562 C 26.707031 414.53125 26.472656 414.726562 25.886719 414.726562 C 25.261719 414.726562 24.910156 414.570312 23.386719 413.984375 Z M 20.769531 413.007812 "/>
<path style=" stroke:none;fill-rule:nonzero;fill:rgb(69.803922%,0%,0%);fill-opacity:1;" d="M 21.238281 389.03125 C 21.238281 388.640625 21.238281 388.171875 20.730469 388.171875 C 20.261719 388.171875 20.261719 388.640625 20.261719 389.03125 L 20.261719 399.617188 C 16.902344 399.304688 14.519531 396.453125 14.519531 392.9375 L 14.519531 389.03125 C 14.519531 388.640625 14.519531 388.171875 14.011719 388.171875 C 13.503906 388.171875 13.503906 388.640625 13.503906 389.03125 L 13.503906 392.976562 C 13.503906 397.234375 16.746094 400.632812 20.730469 400.632812 C 24.753906 400.632812 27.996094 397.234375 27.996094 392.976562 L 27.996094 389.03125 C 27.996094 388.640625 27.996094 388.171875 27.488281 388.171875 C 26.980469 388.171875 26.980469 388.640625 26.980469 389.03125 L 26.980469 392.9375 C 26.980469 396.453125 24.597656 399.304688 21.238281 399.617188 Z M 21.238281 389.03125 "/>
<path style=" stroke:none;fill-rule:nonzero;fill:rgb(69.803922%,0%,0%);fill-opacity:1;" d="M 33.230469 372.816406 L 32.214844 372.816406 L 32.214844 375.238281 L 9.285156 375.238281 L 9.285156 372.816406 L 8.269531 372.816406 L 8.269531 376.253906 L 33.230469 376.253906 Z M 33.230469 372.816406 "/>
<path style=" stroke:none;fill-rule:nonzero;fill:rgb(69.803922%,0%,0%);fill-opacity:1;" d="M 33.230469 370.054688 L 32.214844 370.054688 L 32.214844 372.476562 L 9.285156 372.476562 L 9.285156 370.054688 L 8.269531 370.054688 L 8.269531 373.492188 L 33.230469 373.492188 Z M 33.230469 370.054688 "/>
<path style=" stroke:none;fill-rule:nonzero;fill:rgb(69.803922%,0%,0%);fill-opacity:1;" d="M 19.011719 358.058594 C 17.019531 358.058594 15.027344 358.175781 13.191406 359.035156 C 10.769531 360.167969 10.378906 362.238281 10.378906 363.253906 C 10.378906 364.777344 11.042969 366.574219 13.347656 367.628906 C 15.066406 368.410156 17.019531 368.527344 19.011719 368.527344 C 20.886719 368.527344 23.113281 368.449219 25.027344 367.394531 C 27.019531 366.339844 27.527344 364.503906 27.527344 363.292969 C 27.527344 361.964844 27.019531 360.050781 24.636719 358.957031 C 22.917969 358.175781 20.964844 358.058594 19.011719 358.058594 Z M 26.980469 363.292969 C 26.980469 364.269531 26.355469 365.753906 23.972656 366.183594 C 22.488281 366.457031 20.183594 366.457031 18.699219 366.457031 C 17.097656 366.457031 15.457031 366.457031 14.128906 366.261719 C 11.160156 365.792969 10.925781 363.917969 10.925781 363.292969 C 10.925781 362.472656 11.394531 360.832031 13.855469 360.363281 C 15.261719 360.089844 17.136719 360.089844 18.699219 360.089844 C 20.574219 360.089844 22.253906 360.089844 23.855469 360.363281 C 26.238281 360.753906 26.980469 362.160156 26.980469 363.292969 Z M 26.980469 363.292969 "/>
<path style=" stroke:none;fill-rule:nonzero;fill:rgb(69.803922%,0%,0%);fill-opacity:1;" d="M 26.941406 351.964844 C 25.300781 351.964844 24.324219 352.589844 24.324219 353.566406 C 24.324219 354.386719 24.949219 354.894531 25.652344 354.894531 C 26.316406 354.894531 26.980469 354.386719 26.980469 353.566406 C 26.980469 353.292969 26.863281 352.941406 26.667969 352.707031 C 26.589844 352.628906 26.589844 352.589844 26.589844 352.589844 C 26.589844 352.550781 26.589844 352.550781 26.941406 352.550781 C 28.816406 352.550781 30.300781 353.410156 31.121094 354.230469 C 31.394531 354.503906 31.433594 354.503906 31.511719 354.503906 C 31.707031 354.503906 31.785156 354.386719 31.785156 354.269531 C 31.785156 353.996094 29.871094 351.964844 26.941406 351.964844 Z M 26.941406 351.964844 "/>
<path style=" stroke:none;fill-rule:nonzero;fill:rgb(69.803922%,0%,0%);fill-opacity:1;" d="M 10.496094 339.957031 C 9.949219 340.191406 9.949219 340.269531 9.949219 340.855469 L 9.949219 345.035156 L 10.730469 345.035156 L 10.730469 344.449219 C 10.730469 342.535156 11.003906 342.496094 11.902344 342.496094 L 24.363281 342.496094 C 25.027344 342.496094 26.199219 342.496094 26.199219 345.035156 L 26.980469 345.035156 C 26.941406 344.175781 26.902344 342.964844 26.902344 342.144531 C 26.902344 341.324219 26.941406 340.074219 26.980469 339.214844 L 26.199219 339.214844 C 26.199219 341.792969 25.027344 341.792969 24.363281 341.792969 L 10.925781 341.792969 L 10.925781 341.753906 L 26.433594 335.738281 C 26.746094 335.621094 26.980469 335.503906 26.980469 335.269531 C 26.980469 334.996094 26.785156 334.917969 26.511719 334.800781 L 10.730469 328.667969 L 25.027344 328.667969 C 25.925781 328.667969 26.199219 328.707031 26.199219 330.621094 L 26.199219 331.207031 L 26.980469 331.207031 C 26.902344 330.308594 26.902344 328.589844 26.902344 327.613281 C 26.902344 326.675781 26.902344 324.996094 26.980469 324.058594 L 26.199219 324.058594 L 26.199219 324.683594 C 26.199219 326.597656 25.925781 326.636719 25.027344 326.636719 L 11.902344 326.636719 C 11.003906 326.636719 10.730469 326.597656 10.730469 324.683594 L 10.730469 324.058594 L 9.949219 324.058594 L 9.949219 328.277344 C 9.949219 328.941406 9.988281 328.941406 10.417969 329.097656 L 24.480469 334.566406 Z M 10.496094 339.957031 "/>
<path style=" stroke:none;fill-rule:nonzero;fill:rgb(69.803922%,0%,0%);fill-opacity:1;" d="M 33.230469 316.773438 L 32.214844 316.773438 L 32.214844 319.195312 L 9.285156 319.195312 L 9.285156 316.773438 L 8.269531 316.773438 L 8.269531 320.210938 L 33.230469 320.210938 Z M 33.230469 316.773438 "/>
<path style=" stroke:none;fill-rule:nonzero;fill:rgb(69.803922%,0%,0%);fill-opacity:1;" d="M 33.230469 314.015625 L 32.214844 314.015625 L 32.214844 316.4375 L 9.285156 316.4375 L 9.285156 314.015625 L 8.269531 314.015625 L 8.269531 317.453125 L 33.230469 317.453125 Z M 33.230469 314.015625 "/>
<path style=" stroke:none;fill-rule:nonzero;fill:rgb(80%,0%,0%);fill-opacity:1;" d="M 62.484375 378.382812 L 62.484375 374.789062 L 61.703125 374.789062 L 61.703125 378.382812 L 57.132812 378.382812 L 57.132812 379.007812 C 59.164062 379.007812 61.820312 379.75 61.9375 382.210938 L 62.484375 382.210938 L 62.484375 380.101562 L 69.359375 380.101562 C 72.40625 380.101562 72.71875 377.757812 72.71875 376.859375 C 72.71875 375.101562 70.960938 374.398438 69.359375 374.398438 L 67.953125 374.398438 L 67.953125 375.023438 L 69.320312 375.023438 C 71.15625 375.023438 72.09375 375.765625 72.09375 376.703125 C 72.09375 378.382812 69.828125 378.382812 69.398438 378.382812 Z M 62.484375 378.382812 "/>
<path style=" stroke:none;fill-rule:nonzero;fill:rgb(80%,0%,0%);fill-opacity:1;" d="M 70.570312 370.257812 C 71.664062 370.257812 71.664062 370.53125 71.664062 372.210938 L 72.445312 372.210938 C 72.40625 371.3125 72.367188 370.0625 72.367188 369.359375 C 72.367188 368.734375 72.40625 367.445312 72.445312 366.585938 L 71.664062 366.585938 C 71.664062 368.265625 71.664062 368.539062 70.570312 368.539062 L 65.960938 368.539062 C 63.382812 368.539062 61.976562 366.742188 61.976562 365.179688 C 61.976562 363.578125 63.304688 363.304688 64.75 363.304688 L 70.570312 363.304688 C 71.664062 363.304688 71.664062 363.578125 71.664062 365.257812 L 72.445312 365.257812 C 72.40625 364.398438 72.367188 363.109375 72.367188 362.445312 C 72.367188 361.820312 72.40625 360.492188 72.445312 359.671875 L 71.664062 359.671875 C 71.664062 360.960938 71.664062 361.585938 70.921875 361.585938 L 66.15625 361.585938 C 64.007812 361.585938 63.265625 361.585938 62.367188 362.367188 C 61.9375 362.71875 61.429688 363.539062 61.429688 364.984375 C 61.429688 367.09375 62.914062 368.1875 63.890625 368.617188 L 55.140625 368.617188 L 55.414062 372.210938 L 56.195312 372.210938 C 56.195312 370.453125 56.351562 370.257812 57.601562 370.257812 Z M 70.570312 370.257812 "/>
<path style=" stroke:none;fill-rule:nonzero;fill:rgb(80%,0%,0%);fill-opacity:1;" d="M 64.164062 354.976562 L 61.429688 354.976562 L 61.703125 358.453125 L 62.484375 358.453125 C 62.484375 356.695312 62.640625 356.5 63.890625 356.5 L 70.570312 356.5 C 71.664062 356.5 71.664062 356.773438 71.664062 358.453125 L 72.445312 358.453125 C 72.40625 357.476562 72.367188 356.304688 72.367188 355.601562 C 72.367188 354.625 72.367188 353.453125 72.445312 352.4375 L 71.664062 352.4375 L 71.664062 352.984375 C 71.664062 354.820312 71.390625 354.859375 70.492188 354.859375 L 66.664062 354.859375 C 64.203125 354.859375 61.976562 353.804688 61.976562 351.929688 C 61.976562 351.773438 61.976562 351.695312 62.015625 351.65625 C 62.015625 351.734375 62.328125 352.242188 62.992188 352.242188 C 63.65625 352.242188 64.046875 351.695312 64.046875 351.148438 C 64.046875 350.71875 63.734375 350.09375 62.953125 350.09375 C 62.171875 350.09375 61.429688 350.875 61.429688 351.929688 C 61.429688 353.765625 63.109375 354.664062 64.164062 354.976562 Z M 64.164062 354.976562 "/>
<path style=" stroke:none;fill-rule:nonzero;fill:rgb(80%,0%,0%);fill-opacity:1;" d="M 66.15625 346.625 C 62.445312 346.46875 61.820312 344.359375 61.820312 343.5 C 61.820312 340.960938 65.179688 340.6875 66.15625 340.6875 Z M 66.703125 346.625 L 66.703125 339.671875 C 66.703125 339.125 66.703125 339.046875 66.15625 339.046875 C 63.695312 339.046875 61.273438 340.414062 61.273438 343.5 C 61.273438 346.390625 63.851562 348.695312 66.976562 348.695312 C 70.296875 348.695312 72.71875 346.078125 72.71875 343.226562 C 72.71875 340.179688 69.945312 339.046875 69.476562 339.046875 C 69.242188 339.046875 69.164062 339.242188 69.164062 339.398438 C 69.164062 339.59375 69.320312 339.671875 69.515625 339.710938 C 72.09375 340.570312 72.09375 342.835938 72.09375 343.070312 C 72.09375 344.320312 71.351562 345.296875 70.414062 345.882812 C 69.242188 346.625 67.601562 346.625 66.703125 346.625 Z M 66.703125 346.625 "/>
<path style=" stroke:none;fill-rule:nonzero;fill:rgb(80%,0%,0%);fill-opacity:1;" d="M 70.570312 330.050781 C 71.546875 329.933594 72.601562 329.269531 72.601562 328.097656 C 72.601562 327.550781 72.25 326.027344 70.21875 326.027344 L 68.8125 326.027344 L 68.8125 326.652344 L 70.21875 326.652344 C 71.664062 326.652344 71.820312 327.277344 71.820312 327.550781 C 71.820312 328.371094 70.6875 328.488281 70.570312 328.488281 L 65.609375 328.488281 C 64.554688 328.488281 63.578125 328.488281 62.640625 329.386719 C 61.664062 330.363281 61.273438 331.613281 61.273438 332.785156 C 61.273438 334.855469 62.445312 336.574219 64.085938 336.574219 C 64.828125 336.574219 65.257812 336.066406 65.257812 335.402344 C 65.257812 334.699219 64.75 334.269531 64.125 334.269531 C 63.8125 334.269531 62.992188 334.386719 62.992188 335.558594 C 62.09375 334.855469 61.820312 333.644531 61.820312 332.863281 C 61.820312 331.613281 62.796875 330.207031 65.023438 330.207031 L 65.921875 330.207031 C 66 331.496094 66.078125 333.214844 66.820312 334.777344 C 67.679688 336.652344 68.96875 337.277344 70.0625 337.277344 C 72.09375 337.277344 72.71875 334.855469 72.71875 333.292969 C 72.71875 331.652344 71.703125 330.519531 70.570312 330.050781 Z M 66.46875 330.207031 L 68.96875 330.207031 C 71.3125 330.207031 72.171875 332.003906 72.171875 333.136719 C 72.171875 334.347656 71.3125 335.363281 70.0625 335.363281 C 68.695312 335.363281 66.625 334.308594 66.46875 330.207031 Z M 66.46875 330.207031 "/>
<path style=" stroke:none;fill-rule:nonzero;fill:rgb(80%,0%,0%);fill-opacity:1;" d="M 71.078125 316.425781 L 72.71875 316.425781 L 72.445312 312.753906 L 71.664062 312.753906 C 71.664062 314.472656 71.507812 314.707031 70.257812 314.707031 L 55.140625 314.707031 L 55.414062 318.261719 L 56.195312 318.261719 C 56.195312 316.542969 56.351562 316.347656 57.601562 316.347656 L 62.992188 316.347656 C 62.09375 317.050781 61.429688 318.144531 61.429688 319.472656 C 61.429688 322.402344 63.890625 325.019531 67.09375 325.019531 C 70.257812 325.019531 72.71875 322.597656 72.71875 319.746094 C 72.71875 318.144531 71.859375 317.050781 71.078125 316.425781 Z M 64.398438 316.425781 L 69.515625 316.425781 C 69.945312 316.425781 69.984375 316.425781 70.414062 316.699219 C 71.625 317.441406 72.171875 318.535156 72.171875 319.628906 C 72.171875 320.761719 71.507812 321.660156 70.570312 322.246094 C 69.554688 322.871094 68.148438 322.949219 67.09375 322.949219 C 66.195312 322.949219 64.710938 322.910156 63.578125 322.207031 C 62.796875 321.660156 61.976562 320.722656 61.976562 319.355469 C 61.976562 318.496094 62.367188 317.441406 63.460938 316.699219 C 63.890625 316.425781 63.929688 316.425781 64.398438 316.425781 Z M 64.398438 316.425781 "/>
<path style=" stroke:none;fill-rule:nonzero;fill:rgb(80%,0%,0%);fill-opacity:1;" d="M 56.859375 288.367188 C 56.351562 288.367188 55.960938 288.71875 55.960938 289.265625 C 55.960938 289.96875 56.625 290.632812 57.289062 290.632812 C 57.757812 290.632812 58.1875 290.28125 58.1875 289.695312 C 58.1875 289.109375 57.601562 288.367188 56.859375 288.367188 Z M 66.234375 290.242188 C 65.53125 289.96875 65.453125 289.96875 64.789062 289.695312 C 64.28125 289.5 63.929688 289.382812 63.460938 289.382812 C 62.367188 289.382812 61.429688 290.164062 61.429688 291.414062 C 61.429688 293.757812 65.0625 294.695312 65.257812 294.695312 C 65.53125 294.695312 65.53125 294.460938 65.53125 294.421875 C 65.53125 294.148438 65.453125 294.148438 65.0625 294.03125 C 62.71875 293.328125 61.976562 292.351562 61.976562 291.492188 C 61.976562 291.296875 61.976562 290.867188 62.757812 290.867188 C 63.304688 290.867188 63.8125 291.0625 64.085938 291.140625 C 64.710938 291.335938 67.601562 292.46875 68.695312 292.859375 C 69.320312 293.132812 70.140625 293.445312 70.6875 293.445312 C 71.859375 293.445312 72.71875 292.585938 72.71875 291.414062 C 72.71875 289.070312 69.125 288.132812 68.890625 288.132812 C 68.617188 288.132812 68.617188 288.367188 68.617188 288.445312 C 68.617188 288.679688 68.695312 288.679688 69.085938 288.796875 C 70.648438 289.265625 72.171875 290.085938 72.171875 291.335938 C 72.171875 291.765625 71.9375 291.960938 71.351562 291.960938 C 70.726562 291.960938 70.375 291.804688 68.851562 291.21875 Z M 66.234375 290.242188 "/>
<path style="fill:none;stroke-width:0.79701;stroke-linecap:butt;stroke-linejoin:miter;stroke:rgb(80%,0%,0%);stroke-opacity:1;stroke-miterlimit:10;" d="M -23.830875 101.02125 L -34.1215 101.032188 " transform="matrix(2.5,0,0,-2.5,166.5225,587.2875)"/>
<path style=" stroke:none;fill-rule:nonzero;fill:rgb(80%,0%,0%);fill-opacity:1;" d="M 113.417969 334.734375 L 103.054688 329.550781 L 106.945312 334.734375 L 103.046875 339.914062 "/>
<path style="fill-rule:nonzero;fill:rgb(100%,80%,80%);fill-opacity:1;stroke-width:0.3985;stroke-linecap:butt;stroke-linejoin:miter;stroke:rgb(0%,0%,0%);stroke-opacity:1;stroke-miterlimit:10;" d="M -14.174625 0.0009375 L -14.174625 177.168125 L -7.085562 177.168125 L -7.085562 0.0009375 Z M -14.174625 0.0009375 " transform="matrix(2.5,0,0,-2.5,166.5225,587.2875)"/>
<path style="fill-rule:nonzero;fill:rgb(100%,20%,20%);fill-opacity:1;stroke-width:0.3985;stroke-linecap:butt;stroke-linejoin:miter;stroke:rgb(0%,0%,0%);stroke-opacity:1;stroke-miterlimit:10;" d="M -14.174625 99.215 L -14.174625 102.75875 L -7.085562 102.75875 L -7.085562 99.215 Z M -14.174625 99.215 " transform="matrix(2.5,0,0,-2.5,166.5225,587.2875)"/>
<path style="fill:none;stroke-width:0.3985;stroke-linecap:butt;stroke-linejoin:miter;stroke:rgb(50.196078%,50.196078%,50.196078%);stroke-opacity:1;stroke-miterlimit:10;" d="M -14.174625 0.0009375 L -7.085562 0.0009375 M -14.174625 3.543125 L -7.085562 3.543125 M -14.174625 7.086875 L -7.085562 7.086875 M -14.174625 10.630625 L -7.085562 10.630625 M -14.174625 14.172813 L -7.085562 14.172813 M -14.174625 17.719688 L -7.085562 17.719688 M -14.174625 21.261875 L -7.085562 21.261875 M -14.174625 24.805625 L -7.085562 24.805625 M -14.174625 28.349375 L -7.085562 28.349375 M -14.174625 31.891563 L -7.085562 31.891563 M -14.174625 35.43375 L -7.085562 35.43375 M -14.174625 38.9775 L -7.085562 38.9775 M -14.174625 42.524375 L -7.085562 42.524375 M -14.174625 46.068125 L -7.085562 46.068125 M -14.174625 49.610313 L -7.085562 49.610313 M -14.174625 53.1525 L -7.085562 53.1525 M -14.174625 56.69625 L -7.085562 56.69625 M -14.174625 60.24 L -7.085562 60.24 M -14.174625 63.782188 L -7.085562 63.782188 M -14.174625 67.329063 L -7.085562 67.329063 M -14.174625 70.87125 L -7.085562 70.87125 M -14.174625 74.415 L -7.085562 74.415 M -14.174625 77.95875 L -7.085562 77.95875 M -14.174625 81.500938 L -7.085562 81.500938 M -14.174625 85.043125 L -7.085562 85.043125 M -14.174625 88.59 L -7.085562 88.59 M -14.174625 92.13375 L -7.085562 92.13375 M -14.174625 95.6775 L -7.085562 95.6775 M -14.174625 99.219688 L -7.085562 99.219688 M -14.174625 102.761875 L -7.085562 102.761875 M -14.174625 106.305625 L -7.085562 106.305625 M -14.174625 109.849375 L -7.085562 109.849375 M -14.174625 113.39625 L -7.085562 113.39625 M -14.174625 116.938438 L -7.085562 116.938438 M -14.174625 120.480625 L -7.085562 120.480625 M -14.174625 124.024375 L -7.085562 124.024375 M -14.174625 127.568125 L -7.085562 127.568125 M -14.174625 131.110313 L -7.085562 131.110313 M -14.174625 134.657188 L -7.085562 134.657188 M -14.174625 138.199375 L -7.085562 138.199375 M -14.174625 141.743125 L -7.085562 141.743125 M -14.174625 145.286875 L -7.085562 145.286875 M -14.174625 148.829063 L -7.085562 148.829063 M -14.174625 152.37125 L -7.085562 152.37125 M -14.174625 155.915 L -7.085562 155.915 M -14.174625 159.461875 L -7.085562 159.461875 M -14.174625 163.005625 L -7.085562 163.005625 M -14.174625 166.547813 L -7.085562 166.547813 M -14.174625 170.09 L -7.085562 170.09 M -14.174625 173.63375 L -7.085562 173.63375 M -14.174625 177.165 L -7.085562 177.165 M -14.174625 0.0009375 L -14.174625 177.168125 M -10.632437 0.0009375 L -10.632437 177.168125 M -7.101187 0.0009375 L -7.101187 177.168125 " transform="matrix(2.5,0,0,-2.5,166.5225,587.2875)"/>
<path style="fill:none;stroke-width:0.3985;stroke-linecap:butt;stroke-linejoin:miter;stroke:rgb(0%,0%,0%);stroke-opacity:1;stroke-miterlimit:10;" d="M -14.174625 0.0009375 L -14.174625 177.168125 L -7.085562 177.168125 L -7.085562 0.0009375 Z M -14.174625 0.0009375 " transform="matrix(2.5,0,0,-2.5,166.5225,587.2875)"/>
<path style=" stroke:none;fill-rule:nonzero;fill:rgb(100%,80%,80%);fill-opacity:1;" d="M 166.523438 339.25 L 166.523438 330.390625 L 520.859375 330.390625 L 520.859375 339.25 Z M 166.523438 339.25 "/>
<g clip-path="url(#clip3)" clip-rule="nonzero">
<path style="fill:none;stroke-width:0.3985;stroke-linecap:butt;stroke-linejoin:miter;stroke:rgb(80%,0%,0%);stroke-opacity:1;stroke-miterlimit:10;" d="M 0.000375 99.215 L 0.000375 102.75875 L 141.73475 102.75875 L 141.73475 99.215 Z M 0.000375 99.215 " transform="matrix(2.5,0,0,-2.5,166.5225,587.2875)"/>
</g>
<path style="fill-rule:nonzero;fill:rgb(0%,50.196078%,50.196078%);fill-opacity:1;stroke-width:0.3985;stroke-linecap:butt;stroke-linejoin:miter;stroke:rgb(0%,0%,100%);stroke-opacity:1;stroke-miterlimit:10;" d="M 56.691 99.215 L 56.691 102.75875 L 60.23475 102.75875 L 60.23475 99.215 Z M 56.691 99.215 " transform="matrix(2.5,0,0,-2.5,166.5225,587.2875)"/>
<path style=" stroke:none;fill-rule:nonzero;fill:rgb(0%,0%,50.196078%);fill-opacity:1;" d="M 290.796875 385.421875 L 292.398438 385.421875 C 293.882812 385.421875 294.3125 385.65625 294.3125 386.476562 C 294.3125 386.75 294.234375 387.21875 294.15625 387.53125 C 294.117188 387.6875 294.078125 387.84375 294.078125 387.882812 C 294.078125 388.234375 294.429688 388.3125 294.664062 388.3125 C 295.132812 388.3125 295.171875 388.195312 295.289062 387.726562 L 296.695312 382.179688 C 296.773438 381.867188 296.773438 381.789062 296.773438 381.789062 C 296.773438 381.320312 296.304688 381.320312 296.1875 381.320312 C 295.71875 381.320312 295.679688 381.515625 295.523438 381.984375 C 295.054688 383.859375 294.273438 384.25 292.476562 384.25 L 291.070312 384.25 L 292.710938 377.570312 C 293.0625 377.53125 293.335938 377.53125 293.570312 377.53125 L 296.539062 377.53125 C 299.390625 377.53125 300.25 378.273438 300.25 380.460938 C 300.25 381.046875 300.132812 381.789062 300.132812 381.90625 C 300.132812 382.375 300.640625 382.375 300.757812 382.375 C 301.265625 382.375 301.304688 382.140625 301.34375 381.671875 L 301.8125 377.21875 L 301.8125 376.828125 C 301.8125 376.359375 301.382812 376.359375 300.992188 376.359375 L 287.59375 376.359375 C 287.046875 376.359375 287.046875 376.398438 286.929688 376.476562 C 286.734375 376.632812 286.695312 377.0625 286.695312 377.101562 C 286.695312 377.53125 287.046875 377.53125 287.710938 377.53125 C 288.21875 377.53125 288.726562 377.570312 289.234375 377.570312 L 285.71875 391.632812 C 285.601562 392.023438 285.601562 392.0625 285.132812 392.101562 C 284.703125 392.140625 284.234375 392.140625 283.84375 392.140625 C 283.179688 392.140625 283.140625 392.140625 283.023438 392.179688 C 282.710938 392.375 282.710938 392.765625 282.710938 392.882812 C 282.710938 392.882812 282.710938 393.3125 283.257812 393.3125 C 283.882812 393.3125 284.546875 393.273438 285.171875 393.273438 C 285.835938 393.273438 286.5 393.234375 287.203125 393.234375 C 287.945312 393.234375 288.6875 393.273438 289.429688 393.273438 C 290.171875 393.273438 290.875 393.3125 291.578125 393.3125 C 291.890625 393.3125 292.320312 393.3125 292.320312 392.570312 C 292.320312 392.140625 291.890625 392.140625 291.5 392.140625 L 290.679688 392.140625 C 289.742188 392.140625 289.351562 392.101562 289.117188 392.023438 Z M 290.796875 385.421875 "/>
<path style=" stroke:none;fill-rule:nonzero;fill:rgb(0%,0%,50.196078%);fill-opacity:1;" d="M 312.246094 398.9375 C 311.503906 398.234375 309.902344 396.710938 308.847656 393.546875 C 308.183594 391.554688 307.910156 389.289062 307.910156 387.0625 C 307.910156 382.179688 309.160156 378.273438 311.933594 375.5 C 312.285156 375.109375 312.324219 375.109375 312.324219 374.953125 C 312.324219 374.679688 312.050781 374.601562 311.855469 374.601562 C 311.425781 374.601562 310.410156 375.539062 309.941406 375.96875 C 306.074219 379.835938 305.488281 384.40625 305.488281 387.0625 C 305.488281 390.1875 306.308594 392.921875 307.480469 394.992188 C 309.121094 397.84375 311.386719 399.523438 311.855469 399.523438 C 312.050781 399.523438 312.324219 399.445312 312.324219 399.171875 C 312.324219 399.054688 312.246094 398.9375 312.246094 398.9375 Z M 312.246094 398.9375 "/>
<path style=" stroke:none;fill-rule:nonzero;fill:rgb(80%,0%,0%);fill-opacity:1;" d="M 331.441406 383.3125 C 330.542969 383.585938 330.113281 384.40625 330.113281 385.03125 C 330.113281 385.578125 330.503906 386.203125 331.324219 386.203125 C 332.222656 386.203125 333.121094 385.460938 333.121094 384.25 C 333.121094 382.921875 331.832031 382.0625 330.308594 382.0625 C 328.863281 382.0625 327.964844 383.117188 327.613281 383.585938 C 326.988281 382.53125 325.621094 382.0625 324.175781 382.0625 C 321.050781 382.0625 319.371094 385.109375 319.371094 385.929688 C 319.371094 386.28125 319.722656 386.28125 319.957031 386.28125 C 320.269531 386.28125 320.425781 386.28125 320.542969 385.96875 C 321.246094 383.703125 323.042969 382.960938 324.058594 382.960938 C 324.996094 382.960938 325.464844 383.390625 325.464844 384.171875 C 325.464844 384.679688 325.113281 386.046875 324.878906 386.945312 L 324.019531 390.34375 C 323.667969 391.867188 322.769531 392.609375 321.910156 392.609375 C 321.792969 392.609375 321.207031 392.609375 320.738281 392.257812 C 321.636719 391.984375 322.066406 391.125 322.066406 390.539062 C 322.066406 389.992188 321.636719 389.367188 320.816406 389.367188 C 319.957031 389.367188 319.019531 390.109375 319.019531 391.320312 C 319.019531 392.648438 320.347656 393.507812 321.871094 393.507812 C 323.277344 393.507812 324.214844 392.453125 324.527344 391.984375 C 325.152344 393.039062 326.558594 393.507812 327.964844 393.507812 C 331.128906 393.507812 332.808594 390.460938 332.808594 389.640625 C 332.808594 389.289062 332.417969 389.289062 332.222656 389.289062 C 331.910156 389.289062 331.753906 389.289062 331.636719 389.601562 C 330.933594 391.867188 329.136719 392.609375 328.082031 392.609375 C 327.144531 392.609375 326.714844 392.179688 326.714844 391.359375 C 326.714844 390.851562 327.027344 389.523438 327.261719 388.585938 C 327.417969 387.960938 328.003906 385.617188 328.121094 385.226562 C 328.511719 383.703125 329.371094 382.960938 330.230469 382.960938 C 330.386719 382.960938 330.933594 382.960938 331.441406 383.3125 Z M 331.441406 383.3125 "/>
<path style=" stroke:none;fill-rule:nonzero;fill:rgb(80%,0%,0%);fill-opacity:1;" d="M 341.878906 394.46875 C 341.878906 394.15625 341.566406 394.15625 341.292969 394.15625 C 340.863281 394.15625 340.824219 394.195312 340.746094 394.546875 C 340.433594 395.601562 339.652344 396.382812 338.949219 396.382812 C 338.714844 396.382812 338.675781 396.265625 338.675781 395.953125 C 338.675781 395.640625 338.753906 395.40625 338.832031 395.210938 C 338.988281 394.78125 338.988281 394.78125 339.222656 394.195312 L 340.316406 391.65625 C 340.472656 391.148438 340.511719 391.070312 340.511719 390.757812 C 340.511719 389.625 339.222656 389.15625 338.285156 389.15625 C 336.292969 389.15625 335.277344 391.382812 335.277344 391.890625 C 335.277344 392.203125 335.550781 392.203125 335.824219 392.203125 C 336.253906 392.203125 336.292969 392.164062 336.410156 391.8125 C 336.722656 390.757812 337.464844 389.976562 338.167969 389.976562 C 338.402344 389.976562 338.480469 390.09375 338.480469 390.40625 C 338.480469 390.71875 338.363281 390.953125 338.285156 391.148438 C 338.128906 391.578125 338.128906 391.578125 337.894531 392.164062 L 336.839844 394.703125 C 336.644531 395.210938 336.605469 395.289062 336.605469 395.601562 C 336.605469 396.734375 337.894531 397.203125 338.832031 397.203125 C 340.824219 397.203125 341.878906 394.976562 341.878906 394.46875 Z M 341.058594 385.875 C 341.058594 385.210938 340.550781 384.9375 340.121094 384.9375 C 339.417969 384.9375 338.714844 385.601562 338.714844 386.265625 C 338.714844 386.695312 339.027344 387.203125 339.691406 387.203125 C 340.355469 387.203125 341.058594 386.65625 341.058594 385.875 Z M 341.058594 385.875 "/>
<path style=" stroke:none;fill-rule:nonzero;fill:rgb(0%,0%,50.196078%);fill-opacity:1;" d="M 353.398438 392.804688 C 353.320312 394.367188 352.539062 396.046875 351.171875 397.21875 C 350.820312 397.492188 350.820312 397.53125 350.820312 397.6875 C 350.820312 397.84375 351.09375 398.15625 351.289062 398.15625 C 351.640625 398.15625 354.296875 395.96875 354.296875 392.53125 C 354.296875 390.8125 353.398438 389.40625 351.992188 389.40625 C 350.820312 389.40625 350.078125 390.304688 350.078125 391.359375 C 350.078125 392.375 350.78125 393.3125 351.992188 393.3125 C 352.617188 393.3125 353.085938 393.078125 353.398438 392.804688 Z M 353.398438 392.804688 "/>
<path style=" stroke:none;fill-rule:nonzero;fill:rgb(0%,50.196078%,0%);fill-opacity:1;" d="M 378.671875 383.898438 C 378.789062 383.46875 378.789062 383.429688 378.789062 383.351562 C 378.789062 382.804688 378.398438 382.257812 377.617188 382.257812 C 376.328125 382.257812 376.015625 383.429688 375.859375 384.09375 L 375.195312 386.671875 C 374.921875 387.882812 374.453125 389.796875 374.179688 390.8125 C 374.023438 391.359375 373.28125 391.984375 373.203125 392.023438 C 372.929688 392.179688 372.304688 392.609375 371.484375 392.609375 C 370.039062 392.609375 370 391.359375 370 390.8125 C 370 389.289062 370.78125 387.335938 371.484375 385.539062 C 371.71875 384.875 371.796875 384.71875 371.796875 384.289062 C 371.796875 382.84375 370.351562 382.0625 368.984375 382.0625 C 366.328125 382.0625 365.078125 385.421875 365.078125 385.929688 C 365.078125 386.28125 365.46875 386.28125 365.703125 386.28125 C 365.976562 386.28125 366.171875 386.28125 366.25 385.96875 C 367.070312 383.195312 368.476562 382.960938 368.828125 382.960938 C 369.023438 382.960938 369.257812 382.960938 369.257812 383.46875 C 369.257812 384.054688 368.984375 384.679688 368.828125 385.070312 C 367.851562 387.570312 367.34375 389.015625 367.34375 390.265625 C 367.34375 393.117188 369.84375 393.507812 371.289062 393.507812 C 371.914062 393.507812 372.773438 393.429688 373.710938 392.765625 C 373.007812 395.8125 371.132812 397.453125 369.414062 397.453125 C 369.0625 397.453125 368.398438 397.414062 367.890625 397.101562 C 368.671875 396.789062 369.0625 396.085938 369.0625 395.421875 C 369.0625 394.523438 368.359375 394.289062 367.851562 394.289062 C 366.953125 394.289062 366.054688 395.070312 366.054688 396.164062 C 366.054688 397.453125 367.382812 398.351562 369.414062 398.351562 C 372.265625 398.351562 375.546875 396.4375 376.328125 393.351562 Z M 378.671875 383.898438 "/>
<path style=" stroke:none;fill-rule:nonzero;fill:rgb(0%,50.196078%,0%);fill-opacity:1;" d="M 386.820312 391.382812 C 386.859375 391.226562 386.898438 391.109375 386.898438 390.914062 C 386.898438 389.742188 385.609375 389.15625 384.398438 389.15625 C 382.054688 389.15625 380.765625 391.5 380.765625 391.890625 C 380.765625 392.203125 381.039062 392.203125 381.3125 392.203125 C 381.742188 392.203125 381.742188 392.203125 381.859375 391.890625 C 382.5625 390.445312 383.65625 389.976562 384.28125 389.976562 C 384.476562 389.976562 384.789062 390.054688 384.789062 390.679688 C 384.789062 390.875 384.75 391.070312 384.671875 391.265625 L 383.070312 397.710938 C 382.796875 398.726562 382.015625 399.78125 380.765625 399.78125 L 380.765625 399.742188 C 380.765625 399.742188 381.234375 399.351562 381.234375 398.726562 C 381.234375 397.984375 380.570312 397.828125 380.257812 397.828125 C 379.554688 397.828125 378.890625 398.414062 378.890625 399.195312 C 378.890625 400.054688 379.671875 400.5625 380.882812 400.5625 C 382.054688 400.5625 384.632812 400.054688 385.179688 397.867188 Z M 387.484375 385.875 C 387.484375 385.210938 386.976562 384.9375 386.546875 384.9375 C 385.84375 384.9375 385.140625 385.601562 385.140625 386.265625 C 385.140625 386.695312 385.453125 387.203125 386.117188 387.203125 C 386.78125 387.203125 387.484375 386.617188 387.484375 385.875 Z M 387.484375 385.875 "/>
<path style=" stroke:none;fill-rule:nonzero;fill:rgb(0%,0%,50.196078%);fill-opacity:1;" d="M 403.015625 387.0625 C 403.015625 383.976562 402.195312 381.242188 401.023438 379.171875 C 399.34375 376.28125 397.078125 374.601562 396.609375 374.601562 C 396.414062 374.601562 396.179688 374.679688 396.179688 374.953125 C 396.179688 375.109375 396.179688 375.148438 396.609375 375.539062 C 399.734375 378.742188 400.59375 383.15625 400.59375 387.0625 C 400.59375 391.984375 399.304688 395.890625 396.570312 398.664062 C 396.179688 399.015625 396.179688 399.054688 396.179688 399.171875 C 396.179688 399.445312 396.414062 399.523438 396.609375 399.523438 C 397.039062 399.523438 398.09375 398.585938 398.523438 398.15625 C 402.429688 394.328125 403.015625 389.71875 403.015625 387.0625 Z M 403.015625 387.0625 "/>
<path style="fill:none;stroke-width:0.79701;stroke-linecap:butt;stroke-linejoin:miter;stroke:rgb(0%,60%,0%);stroke-opacity:1;stroke-miterlimit:10;" d="M 2.591 217.915 L 139.144125 217.915 " transform="matrix(2.5,0,0,-2.5,166.5225,587.2875)"/>
<path style=" stroke:none;fill-rule:nonzero;fill:rgb(0%,60%,0%);fill-opacity:1;" d="M 166.523438 42.5 L 176.882812 47.675781 L 173 42.5 L 176.882812 37.3125 "/>
<path style=" stroke:none;fill-rule:nonzero;fill:rgb(0%,60%,0%);fill-opacity:1;" d="M 520.859375 42.5 L 510.5 37.3125 L 514.382812 42.5 L 510.5 47.675781 "/>
<path style=" stroke:none;fill-rule:nonzero;fill:rgb(0%,60%,0%);fill-opacity:1;" d="M 301.722656 11.398438 C 301.722656 10.929688 301.371094 10.5 300.785156 10.5 C 300.199219 10.5 299.457031 11.085938 299.457031 11.828125 C 299.457031 12.335938 299.808594 12.726562 300.394531 12.726562 C 301.058594 12.726562 301.722656 12.0625 301.722656 11.398438 Z M 296.722656 28.234375 C 296.253906 30.109375 295.042969 31.554688 293.675781 31.554688 C 293.519531 31.554688 293.128906 31.554688 292.699219 31.320312 C 293.441406 31.164062 293.792969 30.5 293.792969 29.992188 C 293.792969 29.601562 293.519531 29.132812 292.855469 29.132812 C 292.230469 29.132812 291.527344 29.640625 291.527344 30.539062 C 291.527344 31.554688 292.503906 32.101562 293.714844 32.101562 C 295.472656 32.101562 297.777344 30.773438 298.402344 28.3125 L 300.667969 19.171875 C 300.824219 18.703125 300.824219 18.351562 300.824219 18.273438 C 300.824219 16.828125 299.769531 15.96875 298.519531 15.96875 C 295.980469 15.96875 294.574219 19.601562 294.574219 19.796875 C 294.574219 20.070312 294.808594 20.070312 294.847656 20.070312 C 295.082031 20.070312 295.121094 20.03125 295.316406 19.5625 C 295.941406 18.039062 297.074219 16.515625 298.441406 16.515625 C 298.792969 16.515625 299.222656 16.632812 299.222656 17.648438 C 299.222656 18.234375 299.183594 18.507812 299.066406 18.9375 Z M 296.722656 28.234375 "/>
<path style=" stroke:none;fill-rule:nonzero;fill:rgb(0%,60%,0%);fill-opacity:1;" d="M 324.113281 21.242188 C 324.503906 21.242188 324.972656 21.242188 324.972656 20.734375 C 324.972656 20.265625 324.503906 20.265625 324.113281 20.265625 L 313.527344 20.265625 C 313.839844 16.90625 316.691406 14.523438 320.207031 14.523438 L 324.113281 14.523438 C 324.503906 14.523438 324.972656 14.523438 324.972656 14.015625 C 324.972656 13.507812 324.503906 13.507812 324.113281 13.507812 L 320.167969 13.507812 C 315.910156 13.507812 312.511719 16.75 312.511719 20.734375 C 312.511719 24.757812 315.910156 28 320.167969 28 L 324.113281 28 C 324.503906 28 324.972656 28 324.972656 27.492188 C 324.972656 26.984375 324.503906 26.984375 324.113281 26.984375 L 320.207031 26.984375 C 316.691406 26.984375 313.839844 24.601562 313.527344 21.242188 Z M 324.113281 21.242188 "/>
<path style=" stroke:none;fill-rule:nonzero;fill:rgb(0%,60%,0%);fill-opacity:1;" d="M 340.328125 33.234375 L 340.328125 32.21875 L 337.90625 32.21875 L 337.90625 9.289062 L 340.328125 9.289062 L 340.328125 8.273438 L 336.890625 8.273438 L 336.890625 33.234375 Z M 340.328125 33.234375 "/>
<path style=" stroke:none;fill-rule:nonzero;fill:rgb(0%,60%,0%);fill-opacity:1;" d="M 343.089844 33.234375 L 343.089844 32.21875 L 340.667969 32.21875 L 340.667969 9.289062 L 343.089844 9.289062 L 343.089844 8.273438 L 339.652344 8.273438 L 339.652344 33.234375 Z M 343.089844 33.234375 "/>
<path style=" stroke:none;fill-rule:nonzero;fill:rgb(0%,60%,0%);fill-opacity:1;" d="M 355.085938 19.015625 C 355.085938 17.023438 354.96875 15.03125 354.109375 13.195312 C 352.976562 10.773438 350.90625 10.382812 349.890625 10.382812 C 348.367188 10.382812 346.570312 11.046875 345.515625 13.351562 C 344.734375 15.070312 344.617188 17.023438 344.617188 19.015625 C 344.617188 20.890625 344.695312 23.117188 345.75 25.03125 C 346.804688 27.023438 348.640625 27.53125 349.851562 27.53125 C 351.179688 27.53125 353.09375 27.023438 354.1875 24.640625 C 354.96875 22.921875 355.085938 20.96875 355.085938 19.015625 Z M 349.851562 26.984375 C 348.875 26.984375 347.390625 26.359375 346.960938 23.976562 C 346.6875 22.492188 346.6875 20.1875 346.6875 18.703125 C 346.6875 17.101562 346.6875 15.460938 346.882812 14.132812 C 347.351562 11.164062 349.226562 10.929688 349.851562 10.929688 C 350.671875 10.929688 352.3125 11.398438 352.78125 13.859375 C 353.054688 15.265625 353.054688 17.140625 353.054688 18.703125 C 353.054688 20.578125 353.054688 22.257812 352.78125 23.859375 C 352.390625 26.242188 350.984375 26.984375 349.851562 26.984375 Z M 349.851562 26.984375 "/>
<path style=" stroke:none;fill-rule:nonzero;fill:rgb(0%,60%,0%);fill-opacity:1;" d="M 361.179688 26.945312 C 361.179688 25.304688 360.554688 24.328125 359.578125 24.328125 C 358.757812 24.328125 358.25 24.953125 358.25 25.65625 C 358.25 26.320312 358.757812 26.984375 359.578125 26.984375 C 359.851562 26.984375 360.203125 26.867188 360.4375 26.671875 C 360.515625 26.59375 360.554688 26.59375 360.554688 26.59375 C 360.59375 26.59375 360.59375 26.59375 360.59375 26.945312 C 360.59375 28.820312 359.734375 30.304688 358.914062 31.125 C 358.640625 31.398438 358.640625 31.4375 358.640625 31.515625 C 358.640625 31.710938 358.757812 31.789062 358.875 31.789062 C 359.148438 31.789062 361.179688 29.875 361.179688 26.945312 Z M 361.179688 26.945312 "/>
<path style=" stroke:none;fill-rule:nonzero;fill:rgb(0%,60%,0%);fill-opacity:1;" d="M 372.953125 10.304688 C 372.71875 9.992188 372.71875 9.953125 372.25 9.953125 L 367.992188 9.953125 L 367.992188 10.734375 L 368.734375 10.734375 C 369.085938 10.734375 369.59375 10.773438 369.945312 10.773438 C 370.53125 10.851562 370.570312 10.890625 370.570312 11.359375 L 370.570312 24.367188 C 370.570312 25.03125 370.570312 26.203125 367.992188 26.203125 L 367.992188 26.984375 C 368.851562 26.945312 370.101562 26.90625 370.921875 26.90625 C 371.742188 26.90625 372.953125 26.945312 373.8125 26.984375 L 373.8125 26.203125 C 371.273438 26.203125 371.273438 25.03125 371.273438 24.367188 L 371.273438 11.398438 C 371.390625 11.515625 371.390625 11.554688 371.507812 11.710938 L 381.664062 26.671875 C 381.898438 26.945312 381.9375 26.984375 382.09375 26.984375 C 382.445312 26.984375 382.445312 26.828125 382.445312 26.320312 L 382.445312 12.570312 C 382.445312 11.90625 382.445312 10.734375 385.023438 10.734375 L 385.023438 9.953125 C 384.125 9.992188 382.914062 10.03125 382.09375 10.03125 C 381.273438 10.03125 380.0625 9.992188 379.203125 9.953125 L 379.203125 10.734375 C 381.742188 10.734375 381.742188 11.90625 381.742188 12.570312 L 381.742188 23.234375 Z M 372.953125 10.304688 "/>
<path style=" stroke:none;fill-rule:nonzero;fill:rgb(0%,60%,0%);fill-opacity:1;" d="M 392.21875 33.234375 L 392.21875 32.21875 L 389.796875 32.21875 L 389.796875 9.289062 L 392.21875 9.289062 L 392.21875 8.273438 L 388.78125 8.273438 L 388.78125 33.234375 Z M 392.21875 33.234375 "/>
<path style=" stroke:none;fill-rule:nonzero;fill:rgb(0%,60%,0%);fill-opacity:1;" d="M 394.980469 33.234375 L 394.980469 32.21875 L 392.558594 32.21875 L 392.558594 9.289062 L 394.980469 9.289062 L 394.980469 8.273438 L 391.542969 8.273438 L 391.542969 33.234375 Z M 394.980469 33.234375 "/>
<path style=" stroke:none;fill-rule:nonzero;fill:rgb(80%,100%,80%);fill-opacity:1;" d="M 166.523438 126.648438 L 166.523438 108.9375 L 520.859375 108.9375 L 520.859375 126.648438 Z M 166.523438 126.648438 "/>
<g clip-path="url(#clip4)" clip-rule="nonzero">
<path style="fill:none;stroke-width:0.3985;stroke-linecap:butt;stroke-linejoin:miter;stroke:rgb(0%,0%,0%);stroke-opacity:1;stroke-miterlimit:10;" d="M 0.000375 184.255625 L 0.000375 191.34 L 141.73475 191.34 L 141.73475 184.255625 Z M 0.000375 184.255625 " transform="matrix(2.5,0,0,-2.5,166.5225,587.2875)"/>
</g>
<path style="fill-rule:nonzero;fill:rgb(20%,100%,20%);fill-opacity:1;stroke-width:0.3985;stroke-linecap:butt;stroke-linejoin:miter;stroke:rgb(0%,0%,0%);stroke-opacity:1;stroke-miterlimit:10;" d="M 56.691 184.255625 L 56.691 191.34 L 60.23475 191.34 L 60.23475 184.255625 Z M 56.691 184.255625 " transform="matrix(2.5,0,0,-2.5,166.5225,587.2875)"/>
<g clip-path="url(#clip5)" clip-rule="nonzero">
<path style="fill:none;stroke-width:0.3985;stroke-linecap:butt;stroke-linejoin:miter;stroke:rgb(50.196078%,50.196078%,50.196078%);stroke-opacity:1;stroke-miterlimit:10;" d="M 0.000375 184.266563 L 141.73475 184.266563 M 0.000375 187.80875 L 141.73475 187.80875 M 0.000375 191.34 L 141.73475 191.34 M 0.000375 184.255625 L 0.000375 191.34 M 3.544125 184.255625 L 3.544125 191.34 M 7.086313 184.255625 L 7.086313 191.34 M 10.6285 184.255625 L 10.6285 191.34 M 14.175375 184.255625 L 14.175375 191.34 M 17.719125 184.255625 L 17.719125 191.34 M 21.262875 184.255625 L 21.262875 191.34 M 24.805063 184.255625 L 24.805063 191.34 M 28.34725 184.255625 L 28.34725 191.34 M 31.891 184.255625 L 31.891 191.34 M 35.43475 184.255625 L 35.43475 191.34 M 38.981625 184.255625 L 38.981625 191.34 M 42.523813 184.255625 L 42.523813 191.34 M 46.066 184.255625 L 46.066 191.34 M 49.60975 184.255625 L 49.60975 191.34 M 53.1535 184.255625 L 53.1535 191.34 M 56.695688 184.255625 L 56.695688 191.34 M 60.237875 184.255625 L 60.237875 191.34 M 63.78475 184.255625 L 63.78475 191.34 M 67.3285 184.255625 L 67.3285 191.34 M 70.87225 184.255625 L 70.87225 191.34 M 74.414438 184.255625 L 74.414438 191.34 M 77.956625 184.255625 L 77.956625 191.34 M 81.500375 184.255625 L 81.500375 191.34 M 85.04725 184.255625 L 85.04725 191.34 M 88.591 184.255625 L 88.591 191.34 M 92.133188 184.255625 L 92.133188 191.34 M 95.675375 184.255625 L 95.675375 191.34 M 99.219125 184.255625 L 99.219125 191.34 M 102.762875 184.255625 L 102.762875 191.34 M 106.305063 184.255625 L 106.305063 191.34 M 109.851938 184.255625 L 109.851938 191.34 M 113.394125 184.255625 L 113.394125 191.34 M 116.937875 184.255625 L 116.937875 191.34 M 120.481625 184.255625 L 120.481625 191.34 M 124.023813 184.255625 L 124.023813 191.34 M 127.566 184.255625 L 127.566 191.34 M 131.112875 184.255625 L 131.112875 191.34 M 134.656625 184.255625 L 134.656625 191.34 M 138.200375 184.255625 L 138.200375 191.34 M 141.731625 184.255625 L 141.731625 191.34 " transform="matrix(2.5,0,0,-2.5,166.5225,587.2875)"/>
<path style="fill:none;stroke-width:0.3985;stroke-linecap:butt;stroke-linejoin:miter;stroke:rgb(0%,50.196078%,0%);stroke-opacity:1;stroke-miterlimit:10;" d="M 0.000375 184.255625 L 0.000375 191.34 L 141.73475 191.34 L 141.73475 184.255625 Z M 0.000375 184.255625 " transform="matrix(2.5,0,0,-2.5,166.5225,587.2875)"/>
</g>
<path style="fill:none;stroke-width:0.79701;stroke-linecap:butt;stroke-linejoin:miter;stroke:rgb(0%,50.196078%,0%);stroke-opacity:1;stroke-miterlimit:10;" d="M 58.466 173.62125 L 58.466 110.665 " transform="matrix(2.5,0,0,-2.5,166.5225,587.2875)"/>
<path style=" stroke:none;fill-rule:nonzero;fill:rgb(0%,50.196078%,0%);fill-opacity:1;" d="M 312.6875 317.109375 L 317.859375 306.75 L 312.6875 310.625 L 307.5 306.75 "/>
<g clip-path="url(#clip6)" clip-rule="nonzero">
<path style="fill:none;stroke-width:0.79701;stroke-linecap:butt;stroke-linejoin:miter;stroke:rgb(0%,0%,0%);stroke-opacity:1;stroke-miterlimit:10;" d="M 0.000375 0.0009375 L 141.73475 0.0009375 L 141.73475 177.168125 L 0.000375 177.168125 Z M 0.000375 0.0009375 " transform="matrix(2.5,0,0,-2.5,166.5225,587.2875)"/>
</g>
</g>
</svg>
